<svg xmlns="http://www.w3.org/2000/svg" height="800" width="1200" viewBox="-22.87002 -9.712675 198.20684 58.27605"><defs><clipPath id="c" clipPathUnits="userSpaceOnUse"><path d="M0 0h612v792H0z"/></clipPath><clipPath id="b" clipPathUnits="userSpaceOnUse"><path d="M0 0h612v792H0z"/></clipPath><clipPath id="a" clipPathUnits="userSpaceOnUse"><path d="M0 0h612v792H0z"/></clipPath></defs><path d="M3.9713 5.9746C7.5597 2.4522 11.579.7903 15.4228.227c5.793-.8412 11.1825.8162 14.0892 2.3209 6.5226 3.3855 8.6861 8.6952 7.9953 15.0445-.7546 6.926-5.4601 13.7587-12.2084 19-2.7244 2.1225-5.2618 2.5032-7.0514 2.1339-4.0604-.8527-8.0865-4.432-10.9956-8.3829C2.6946 24.1492-.2418 17.1821.091 13.7031c.3032-3.2282 1.8558-5.745 3.8803-7.7285m9.2264-2.355C6.1667 6.043.0112 10.6025 1.0827 15.6705c.8025 3.78 3.8301 8.8867 7.7924 13.5216 4.1151 4.8127 9.1056 8.6656 13.1067 8.1458 4.9677-.6475 9.6983-9.7303 11.1437-18.5076 1.181-7.1745.2189-14.2169-4.7032-16.0704-3.6363-1.3679-10.3139-.8321-15.2246.8595" fill="#f4901d"/><path d="M.0206 22.1907c-.1665-3.2283.6885-6.1031 2.1384-8.5288C4.5756 9.6152 8.6474 6.8042 12.4 5.5959c7.0993-2.273 12.0875 1.3291 14.6045 6.5248 1.997 4.131 2.7266 9.4521 2.1658 14.4244-.2394 2.1453-.7638 4.1493-2.8498 5.4807-2.7973 1.7874-7.1084 1.8763-11.3398 1.1764-5.7839-.9576-11.4173-3.3878-12.8604-4.9837C.6772 26.6272.1573 24.842.0206 22.1907m3.8825-7.0173C1.2334 20.0636.5198 26.2122 3.8278 28.581c1.833 1.3063 6.9261 2.7677 12.0033 3.2054 5.1455.4423 10.2842-.1619 11.9872-3.0413 1.9128-3.219-.0843-9.6983-3.5405-14.9328-3.7047-5.6083-8.6838-9.338-12.824-7.138-2.941 1.5684-5.597 4.9289-7.5507 8.499" fill="#ffc425"/><path d="M19.4847 26.127c-1.0555-1.0168-2.0176-2.298-2.583-3.732-1.0943-2.818-.8777-6.632.9849-9.4773C20.5198 8.9053 24.5413 8.0481 28.1 8.6271c5.059.8253 10.0586 4.5232 12.1537 7.341.5358.7136.8276 1.4523.8367 2.2.0343 2.4235-2.6126 4.9632-5.8591 6.9352-3.3559 2.0405-7.9474 3.7367-10.307 3.6865-1.8535-.0387-4.0125-1.288-5.4397-2.6628m-.962-5.0817c1.4408 4.4274 4.7351 7.7171 8.059 7.0788 1.001-.1938 4.097-1.5001 7.2681-3.4927 3.3103-2.0814 6.3562-4.8286 6.1213-7.6168-.2097-2.4349-6.0187-5.059-11.6156-5.891-4.7512-.7023-9.4043-.1847-10.3367 2.95-.595 1.9971-.2553 4.619.5038 6.9717M54.9741 7.7859h3.0117v20.9765H54.974z" fill="#c60c46"/><g clip-path="url(#a)" transform="matrix(2.27981 0 0 -2.27981 -931.2715 1432.7681)"><path d="M442.1026 615.8419l-2.764 3.672c-.516.684-.795 1.061-.992 1.396h-.028c.015-.307.028-.671.028-1.146v-3.922h-1.201v6.787h1.258l2.57-3.422c.599-.796.878-1.174 1.075-1.523h.026c-.012.335-.026.67-.026 1.188v3.757h1.215v-6.787zm6.6724-.0563h-.821l-2.844 6.843h1.312l1.438-3.591c.185-.462.387-.96.519-1.409h.026c.141.442.328.891.546 1.409l1.497 3.591h1.295z" fill="#c60c46"/></g><path d="M102.8001 13.2916h2.7358v15.4731H102.8z" fill="#c60c46"/><g clip-path="url(#b)" transform="matrix(2.27981 0 0 -2.27981 -931.2715 1432.7681)"><path d="M459.614 615.7003c-.961-.035-1.605.23-2.132.611l.456.934c.459-.342 1.041-.606 1.652-.581.658.026 1.141.414 1.141 1.043 0 1.131-1.618 1.003-2.498 1.828-.385.37-.599.749-.586 1.389.022 1.034.812 1.815 2.166 1.815.753 0 1.376-.194 1.711-.364v-1.09c-.503.296-1.081.477-1.599.477-.586 0-1.076-.251-1.089-.767-.02-.699.633-.842 1.375-1.125.847-.327 1.764-.767 1.736-2.119-.026-1.23-1.026-2.001-2.333-2.051" fill="#c60c46"/></g><path d="M136.6227 15.6788h-4.5573v13.0839h-2.7312V15.6788h-4.7785v-2.387h13.0177z" fill="#c60c46"/><g clip-path="url(#c)" transform="matrix(2.27981 0 0 -2.27981 -931.2715 1432.7681)"><path d="M473.0764 618.4507h-1.812l.542 1.407c.167.432.278.759.349 1.025h.029c.075-.257.19-.597.351-1.021zm2.286-2.609l-2.77 6.813h-.845l-2.77-6.813h1.278l.622 1.605h2.588l.618-1.605z" fill="#c60c46"/></g></svg>